<?xml version="1.0" standalone="no"?>
<!DOCTYPE svg PUBLIC "-//W3C//DTD SVG 20010904//EN"
 "http://www.w3.org/TR/2001/REC-SVG-20010904/DTD/svg10.dtd">
<svg version="1.0" xmlns="http://www.w3.org/2000/svg"
 width="700.000000pt" height="700.000000pt" viewBox="0 0 700.000000 700.000000"
 preserveAspectRatio="xMidYMid meet">
<metadata>
Created by potrace 1.14, written by Peter Selinger 2001-2017
</metadata>
<g transform="translate(0.000000,700.000000) scale(0.100000,-0.100000)"
fill="#000000" stroke="none">
<path d="M2579 5126 c-2 -2 -29 -7 -59 -10 -180 -22 -342 -71 -525 -162 -320
-158 -580 -419 -736 -740 -148 -305 -194 -618 -145 -977 9 -63 53 -229 81
-302 215 -571 728 -978 1330 -1053 154 -19 403 -5 570 32 230 52 505 192 678
347 l57 51 0 -211 0 -211 233 0 234 0 1 788 c0 433 1 795 1 805 1 16 46 17
805 17 l803 0 -1 233 -1 232 -565 2 c-311 0 -568 2 -571 2 -3 1 -5 258 -5 571
l1 570 -234 -2 -234 -3 -1 -800 -1 -800 -802 -3 -803 -2 -1 -35 c0 -19 0 -55
0 -80 0 -25 0 -114 0 -198 l1 -153 540 1 541 0 -5 -21 c-9 -33 -74 -146 -122
-210 -173 -230 -409 -383 -689 -443 -218 -47 -458 -24 -670 64 -72 29 -202 99
-215 114 -3 3 -31 26 -62 49 -284 216 -458 602 -434 963 19 289 126 534 324
739 405 418 1058 467 1522 114 129 -98 246 -236 321 -379 l43 -82 253 0 c139
0 253 3 253 5 0 25 -67 192 -115 287 -82 161 -167 278 -299 410 -127 126 -138
135 -261 217 -142 95 -373 196 -506 222 -13 2 -46 9 -74 15 -27 6 -70 13 -95
17 -49 6 -356 15 -361 10z"/>
</g>
</svg>
